<?xml version="1.0" encoding="UTF-8" standalone="no"?>
<svg
   fill="#000000"
   height="16"
   width="16"
   version="1.1"
   id="rss"
   viewBox="-271 273 5.12 5.12"
   xml:space="preserve"
   sodipodi:docname="rss-src.svg"
   inkscape:version="1.4 (86a8ad7, 2024-10-11)"
   xmlns:inkscape="http://www.inkscape.org/namespaces/inkscape"
   xmlns:sodipodi="http://sodipodi.sourceforge.net/DTD/sodipodi-0.dtd"
   xmlns="http://www.w3.org/2000/svg"
   xmlns:svg="http://www.w3.org/2000/svg"><defs
   id="defs3" /><sodipodi:namedview
   id="namedview3"
   pagecolor="#ffffff"
   bordercolor="#000000"
   borderopacity="0.25"
   inkscape:showpageshadow="2"
   inkscape:pageopacity="0.0"
   inkscape:pagecheckerboard="0"
   inkscape:deskcolor="#d1d1d1"
   inkscape:zoom="0.524375"
   inkscape:cx="445.29201"
   inkscape:cy="604.5292"
   inkscape:window-width="1902"
   inkscape:window-height="986"
   inkscape:window-x="961"
   inkscape:window-y="16"
   inkscape:window-maximized="0"
   inkscape:current-layer="rss" />
	<g
   id="g3"
   transform="matrix(0.02,0,0,0.02,-265.58,267.54)">
		<path
   d="m -271,360 v 48.9 c 31.9,0 62.1,12.6 84.7,35.2 22.6,22.6 35.1,52.8 35.1,84.8 v 0.1 h 49.1 c 0,-46.6 -19,-88.7 -49.6,-119.4 C -182.2,379 -224.4,360.1 -271,360 Z"
   id="path1" />
		<path
   d="m -237,460.9 c -9.4,0 -17.8,3.8 -24,10 -6.2,6.2 -10,14.6 -10,24 0,9.3 3.8,17.7 10,23.9 6.2,6.1 14.6,9.9 24,9.9 9.4,0 17.8,-3.7 24,-9.9 6.2,-6.2 10,-14.6 10,-23.9 0,-9.4 -3.8,-17.8 -10,-24 -6.2,-6.2 -14.6,-10 -24,-10 z"
   id="path2" />
		<path
   d="M -90.1,348.1 C -136.4,301.7 -200.3,273 -270.9,273 v 48.9 c 114.1,0.1 206.8,93 206.9,207.1 h 49 c 0,-70.6 -28.7,-134.5 -75.1,-180.9 z"
   id="path3" />
	</g>
</svg>
